<svg viewBox="0 0 330.0000305175781 200.00001525878906" xmlns="http://www.w3.org/2000/svg"><g><g><g><g><g><line x1="41.171875" y1="177" x2="36.171875" y2="177" style="visibility: inherit;" fill="rgb(0, 0, 0)" stroke="rgb(204, 204, 204)" stroke-width="1px"></line><line x1="41.171875" y1="157.33333333333331" x2="36.171875" y2="157.33333333333331" style="visibility: inherit;" fill="rgb(0, 0, 0)" stroke="rgb(204, 204, 204)" stroke-width="1px"></line><line x1="41.171875" y1="137.66666666666666" x2="36.171875" y2="137.66666666666666" style="visibility: inherit;" fill="rgb(0, 0, 0)" stroke="rgb(204, 204, 204)" stroke-width="1px"></line><line x1="41.171875" y1="118.00000000000001" x2="36.171875" y2="118.00000000000001" style="visibility: inherit;" fill="rgb(0, 0, 0)" stroke="rgb(204, 204, 204)" stroke-width="1px"></line><line x1="41.171875" y1="98.33333333333334" x2="36.171875" y2="98.33333333333334" style="visibility: inherit;" fill="rgb(0, 0, 0)" stroke="rgb(204, 204, 204)" stroke-width="1px"></line><line x1="41.171875" y1="78.66666666666666" x2="36.171875" y2="78.66666666666666" style="visibility: inherit;" fill="rgb(0, 0, 0)" stroke="rgb(204, 204, 204)" stroke-width="1px"></line><line x1="41.171875" y1="59.00000000000001" x2="36.171875" y2="59.00000000000001" style="visibility: inherit;" fill="rgb(0, 0, 0)" stroke="rgb(204, 204, 204)" stroke-width="1px"></line><line x1="41.171875" y1="39.33333333333333" x2="36.171875" y2="39.33333333333333" style="visibility: inherit;" fill="rgb(0, 0, 0)" stroke="rgb(204, 204, 204)" stroke-width="1px"></line><line x1="41.171875" y1="19.666666666666675" x2="36.171875" y2="19.666666666666675" style="visibility: inherit;" fill="rgb(0, 0, 0)" stroke="rgb(204, 204, 204)" stroke-width="1px"></line><line x1="41.171875" y1="0" x2="36.171875" y2="0" style="visibility: inherit;" fill="rgb(0, 0, 0)" stroke="rgb(204, 204, 204)" stroke-width="1px"></line></g><g transform="translate(31.171875, 0)"><text x="0" y="177" dx="0em" dy="0.3em" style="text-anchor: end; visibility: hidden; font-family: Roboto, sans-serif; font-size: 12px; font-weight: 200;" fill="rgb(33, 33, 33)" stroke="none" stroke-width="1px">1.5</text><text x="0" y="157.33333333333331" dx="0em" dy="0.3em" style="text-anchor: end; visibility: inherit; font-family: Roboto, sans-serif; font-size: 12px; font-weight: 200;" fill="rgb(33, 33, 33)" stroke="none" stroke-width="1px">2</text><text x="0" y="137.66666666666666" dx="0em" dy="0.3em" style="text-anchor: end; visibility: hidden; font-family: Roboto, sans-serif; font-size: 12px; font-weight: 200;" fill="rgb(33, 33, 33)" stroke="none" stroke-width="1px">2.5</text><text x="0" y="118.00000000000001" dx="0em" dy="0.3em" style="text-anchor: end; visibility: inherit; font-family: Roboto, sans-serif; font-size: 12px; font-weight: 200;" fill="rgb(33, 33, 33)" stroke="none" stroke-width="1px">3</text><text x="0" y="98.33333333333334" dx="0em" dy="0.3em" style="text-anchor: end; visibility: hidden; font-family: Roboto, sans-serif; font-size: 12px; font-weight: 200;" fill="rgb(33, 33, 33)" stroke="none" stroke-width="1px">3.5</text><text x="0" y="78.66666666666666" dx="0em" dy="0.3em" style="text-anchor: end; visibility: inherit; font-family: Roboto, sans-serif; font-size: 12px; font-weight: 200;" fill="rgb(33, 33, 33)" stroke="none" stroke-width="1px">4</text><text x="0" y="59.00000000000001" dx="0em" dy="0.3em" style="text-anchor: end; visibility: hidden; font-family: Roboto, sans-serif; font-size: 12px; font-weight: 200;" fill="rgb(33, 33, 33)" stroke="none" stroke-width="1px">4.5</text><text x="0" y="39.33333333333333" dx="0em" dy="0.3em" style="text-anchor: end; visibility: inherit; font-family: Roboto, sans-serif; font-size: 12px; font-weight: 200;" fill="rgb(33, 33, 33)" stroke="none" stroke-width="1px">5</text><text x="0" y="19.666666666666675" dx="0em" dy="0.3em" style="text-anchor: end; visibility: hidden; font-family: Roboto, sans-serif; font-size: 12px; font-weight: 200;" fill="rgb(33, 33, 33)" stroke="none" stroke-width="1px">5.5</text><text x="0" y="0" dx="0em" dy="0.3em" style="text-anchor: end; visibility: hidden; font-family: Roboto, sans-serif; font-size: 12px; font-weight: 200;" fill="rgb(33, 33, 33)" stroke="none" stroke-width="1px">6</text></g><line x1="41.171875" y1="0" x2="41.171875" y2="177" fill="rgb(0, 0, 0)" stroke="rgb(204, 204, 204)" stroke-width="1px"></line></g></g><g transform="translate(41, 0)" clip-path="url(#clip_0)"><clipPath id="clip_0"><rect width="288" height="176"></rect></clipPath><g><g><g><line x1="0" y1="0" x2="0" y2="177" fill="rgb(0, 0, 0)" stroke="rgb(66, 66, 66)" stroke-width="1px" opacity="0.25"></line><line x1="32.092013888888886" y1="0" x2="32.092013888888886" y2="177" fill="rgb(0, 0, 0)" stroke="rgb(66, 66, 66)" stroke-width="1px" opacity="0.25"></line><line x1="64.18402777777777" y1="0" x2="64.18402777777777" y2="177" fill="rgb(0, 0, 0)" stroke="rgb(66, 66, 66)" stroke-width="1px" opacity="0.25"></line><line x1="96.27604166666666" y1="0" x2="96.27604166666666" y2="177" fill="rgb(0, 0, 0)" stroke="rgb(66, 66, 66)" stroke-width="1px" opacity="0.25"></line><line x1="128.36805555555554" y1="0" x2="128.36805555555554" y2="177" fill="rgb(0, 0, 0)" stroke="rgb(66, 66, 66)" stroke-width="1px" opacity="0.25"></line><line x1="160.46006944444446" y1="0" x2="160.46006944444446" y2="177" fill="rgb(0, 0, 0)" stroke="rgb(66, 66, 66)" stroke-width="1px" opacity="0.25"></line><line x1="192.55208333333331" y1="0" x2="192.55208333333331" y2="177" fill="rgb(0, 0, 0)" stroke="rgb(66, 66, 66)" stroke-width="1px" opacity="0.25"></line><line x1="224.64409722222223" y1="0" x2="224.64409722222223" y2="177" fill="rgb(0, 0, 0)" stroke="rgb(66, 66, 66)" stroke-width="1px" opacity="0.25"></line><line x1="256.7361111111111" y1="0" x2="256.7361111111111" y2="177" fill="rgb(0, 0, 0)" stroke="rgb(66, 66, 66)" stroke-width="1px" opacity="0.25"></line><line x1="288.828125" y1="0" x2="288.828125" y2="177" fill="rgb(0, 0, 0)" stroke="rgb(66, 66, 66)" stroke-width="1px" opacity="0.25"></line></g><g><line x1="0" y1="177" x2="288.828125" y2="177" fill="rgb(0, 0, 0)" stroke="rgb(66, 66, 66)" stroke-width="1px" opacity="0.25"></line><line x1="0" y1="157.33333333333331" x2="288.828125" y2="157.33333333333331" fill="rgb(0, 0, 0)" stroke="rgb(66, 66, 66)" stroke-width="1px" opacity="0.25"></line><line x1="0" y1="137.66666666666666" x2="288.828125" y2="137.66666666666666" fill="rgb(0, 0, 0)" stroke="rgb(66, 66, 66)" stroke-width="1px" opacity="0.25"></line><line x1="0" y1="118.00000000000001" x2="288.828125" y2="118.00000000000001" fill="rgb(0, 0, 0)" stroke="rgb(66, 66, 66)" stroke-width="1px" opacity="0.25"></line><line x1="0" y1="98.33333333333334" x2="288.828125" y2="98.33333333333334" fill="rgb(0, 0, 0)" stroke="rgb(66, 66, 66)" stroke-width="1px" opacity="0.25"></line><line x1="0" y1="78.66666666666666" x2="288.828125" y2="78.66666666666666" fill="rgb(0, 0, 0)" stroke="rgb(66, 66, 66)" stroke-width="1px" opacity="0.25"></line><line x1="0" y1="59.00000000000001" x2="288.828125" y2="59.00000000000001" fill="rgb(0, 0, 0)" stroke="rgb(66, 66, 66)" stroke-width="1px" opacity="0.25"></line><line x1="0" y1="39.33333333333333" x2="288.828125" y2="39.33333333333333" fill="rgb(0, 0, 0)" stroke="rgb(66, 66, 66)" stroke-width="1px" opacity="0.25"></line><line x1="0" y1="19.666666666666675" x2="288.828125" y2="19.666666666666675" fill="rgb(0, 0, 0)" stroke="rgb(66, 66, 66)" stroke-width="1px" opacity="0.25"></line><line x1="0" y1="0" x2="288.828125" y2="0" fill="rgb(0, 0, 0)" stroke="rgb(66, 66, 66)" stroke-width="1px" opacity="0.25"></line></g></g></g><g><g><line x1="0" y1="236" x2="288.828125" y2="236" fill="rgb(0, 0, 0)" stroke="rgb(153, 153, 153)" stroke-width="1.5px"></line></g></g><g><g><line x1="32.092013888888886" y1="0" x2="32.092013888888886" y2="177" fill="rgb(0, 0, 0)" stroke="rgb(153, 153, 153)" stroke-width="1.5px"></line></g></g><g><g><g><g><g><path stroke="rgb(255, 112, 67)" stroke-width="2px" d="M34.544357222222224,-42.545379002888986L34.799039444444446,15.954559326171882L35.23446388888889,-19.697650909423828L36.26551611111111,-17.19764264424641L36.31070166666666,8.066743850708L36.35588722222222,-28.519588788350415L36.71737166666667,-16.822343190511074L36.74612611111111,0.9662132263183594L36.87757499999999,-37.52626927693684L38.45496166666667,-1.687065760294605L38.524793888888894,3.1465511322021418L38.956110555555554,35.180582046508796L40.06521055555556,20.318104743957512L40.14736611111111,28.479039192199714L42.09990842013889,5.921235084533698L42.12044730902778,34.24782880147297L42.20671064236111,27.387444814046216L42.37512953125,53.65099811553955L42.679105086805556,43.57357947031657L42.95021842013889,24.167709350585945L43.118637309027775,38.59271240234376L43.15560730902778,54.39930884043376L43.21722397569444,28.393532435099278L43.25419397569445,28.59894371032714L43.46369064236111,33.55135854085285L43.53352286458333,25.779902776082363L44.30578508680556,52.10503069559734L44.75764064236112,60.854028065999344L44.843903975694445,42.04441706339518L44.84801175347223,60.846000671386726L45.01232286458333,39.123945871988944L45.308082864583334,32.899864196777344L45.406669531249996,28.001878102620434L45.505256197916665,12.900585810343427L45.87906397569444,49.26168251037598L46.076237309027775,43.79680856068929L46.470583975694446,19.735762278238926L46.57738619791667,35.961602528889976L46.74169730902778,54.78618049621582L46.88136175347222,60.173274993896484L46.94708619791667,-7.86438973744712L47.10318175347222,33.748367309570305L47.16069064236111,23.710185368855793L47.173013975694445,44.061093648274735L47.34143286458333,14.66833813985188L47.62897730902778,66.98731390635173L47.900090642361114,45.11095682779949L48.175311753472215,32.82073434193929L48.618951753472224,62.333957036336265L48.96946072916666,64.01438331604004L49.0187540625,54.0169947942098L49.265220729166664,45.314342498779304L49.31040628472223,39.91329383850097L49.454178506944444,72.72031784057617L49.82798628472222,47.013374328613274L49.8690640625,86.22625923156738L50.73580517361111,63.711930592854806L50.83849961805556,85.5100580851237L51.18766072916667,100.63495429356892L51.35607961805555,66.26702404022217L51.9393840625,65.72046724955241L51.955815173611114,72.53144900004068L52.144772951388894,68.71067174275716L52.99919072916667,65.47743225097656L53.17171739583333,92.8403353691101L53.18814850694445,37.39025370279948L53.39764517361111,83.44827429453531L53.45104628472222,70.35332425435385L53.55374072916666,91.0345091819763L53.705728506944446,68.53339385986328L53.841285173611105,71.58567937215169L54.11650628472222,88.24633057912192L54.284925173611114,77.8035717010498L54.494421840277774,53.64345836639405L55.36937850694444,102.74260489145915L56.04716184027778,69.43308099110921L56.18682628472222,51.18784459431966L56.24022739583334,69.20548184712729L56.556526284722224,67.43960507710774L56.65922072916667,73.1476640701294L56.72494517361111,92.45915603637697L56.954980729166664,81.73632923762004L57.19047192708333,97.0019580523173L57.301381927083334,89.92195542653401L57.317813038194444,103.48396666844685L57.65875859375,68.74973964691162L57.880578593749995,82.00927941004436L58.09829081597223,83.8096570968628L58.10650637152778,79.9074805577596L58.20509303819445,85.71299362182617L58.209200815972224,74.849302927653L58.25027859375,78.3918596903483L58.99789414930556,80.3390843073527L59.07183414930556,106.80230967203775L59.13755859374999,82.78892135620117L59.158097482638894,85.62225405375162L59.19506748263889,77.7777452468872L59.73318637152778,98.66273784637453L59.81534192708334,83.98440297444661L60.02894637152778,67.8400370279948L60.22611970486111,103.17396481831868L60.50955637152778,107.57160790761313L60.80531637152778,105.98122723897298L60.82585526041667,81.38789717356363L61.06410637152778,125.93946838378905L61.69259637152778,87.66312535603842L61.88155414930555,98.09407758712767L62.63327748263889,106.59235954284668L62.74829526041666,80.26324605941772L62.76472637152778,118.19505818684897L63.072809704861115,102.30410846074423L63.323384149305554,57.88400459289551L63.487695260416665,111.6786142985026L63.82864081597222,68.31822967529297L63.840964149305556,82.95254516601562L63.94776637152778,107.48113091786703L64.10386192708334,79.72453848520914L64.21477192708333,48.97202110290527L64.35443637152778,105.92208147048952L64.89255526041667,69.03488095601399L65.45121303819445,72.11151123046875L66.14266756944444,73.31055641174316L67.19836645833334,98.15915012359618L67.22301312500001,78.00753879547119L67.48591090277777,132.7267993291219L67.65432979166667,114.2244987487793L67.7981020138889,108.03065109252931L67.92133534722223,86.3418124516805L68.03635312499999,102.3020265897115L68.13493979166667,92.80529991785684L68.14315534722222,108.0350211461385L68.32800534722222,103.56815115610759L68.369083125,83.70458825429282L68.52107090277778,109.72863260904947L68.54982534722222,119.68382104237874L69.29333312499999,85.28281529744466L69.552123125,115.44402503967287L69.67946423611112,134.7609936396281L70.0902420138889,111.0034597714742L70.25044534722223,100.3169625600179L70.39832534722223,96.07003943125407L70.52977423611111,78.01299667358398L71.26506645833334,98.025732199351L71.30203645833333,79.74093087514241L71.81140090277778,97.8514552116394L71.97981979166667,113.84565448760988L72.14823868055555,93.80601406097414L72.15234645833333,94.31197436650594L72.49329201388889,90.43377685546875L72.61652534722222,114.55504735310873L72.72743534722223,126.0007241566976L72.82191423611111,117.65870443979898L72.94925534722222,78.27021090189616L72.953363125,97.55081240336101L73.05194979166667,97.70190747578938L73.07659645833333,99.93575509389242L73.13410534722222,81.27710787455241L73.42164979166667,126.20546023050944L73.53255979166667,126.87527879079184L73.65990090277778,108.69644657770793L73.729733125,93.44781970977785L73.94468543402778,122.35145743687947L74.01451765624999,124.4053169886271L74.04327210069445,127.54790131251018L74.56495987847222,115.46452490488689L74.57728321180556,97.29750871658324L74.78267210069444,123.5085744857788L74.98806098958333,111.24612903594972L75.04146210069445,100.78200753529866L75.21809654513889,115.27768166859946L75.28792876736111,99.95641438166301L75.46456321180555,102.99181048075357L75.80140098958333,101.9199094772339L75.80961654513888,108.83018334706625L76.06429876736112,116.94845819473268L76.13413098958333,112.57373444239299L77.36235654513888,77.27770233154297L77.41575765625,108.11525758107503L77.48969765624999,128.62387228012085L77.6540087673611,119.16172154744466L77.75259543402778,110.46371126174927L77.77724210069445,115.4428621927897L78.1387265451389,102.80491097768147L78.16337321180555,77.03568013509114L78.62755210069444,112.48686790466309L78.88634210069445,122.08990128835042L78.94795876736111,94.04112482070923L79.08762321180555,129.53851699829102L80.49659098958332,128.52745914459229L80.63214765625,123.2883462905884L80.74716543402778,127.81594689687093L80.82932098958334,118.97262763977052L81.48656543402778,97.21465587615967L81.6878465451389,121.02218278249104L82.09451654513889,97.38821077346803L82.11094765624999,106.64450009663899L82.33822329861111,114.58409976959227L82.61344440972222,114.66304206848145L82.67095329861111,106.22976700464885L82.82704885416666,92.81982612609862L83.00779107638888,116.91097513834636L83.01600663194444,101.34416898091634L83.16799440972223,114.72294743855794L83.32819774305555,105.13033278783163L83.64860440972222,117.6272513071696L83.84166996527777,109.93018960952757L84.2812021875,92.17686557769774L85.07400329861112,100.02075544993082L85.09043440972223,116.46057828267415L85.25063774305556,141.19893598556519L85.36565552083334,113.05900732676189L85.38208663194445,120.51486269632976L86.72943774305556,117.06861591339111L86.91428774305555,133.9824676513672L87.0744910763889,116.94968668619792L87.19772440972221,134.79563522338867L87.34971218749999,125.07423528035481L87.62493329861111,108.8385108311971L87.73995107638889,86.55480098724365L88.03981885416667,130.52097256978354L88.11786663194445,112.69599278767903L88.13840552083335,120.54884783426921L88.77511107638888,129.1800413131714L88.96817663194444,135.5472469329834L89.46932552083334,121.94454542795816L89.50629552083333,121.79241879781087L89.61309774305556,112.63939778010051L89.77740885416667,98.20888996124268L90.31552774305555,118.40377044677736L90.36071329861112,104.95404895146687L90.43465329861111,113.83113765716554L90.64549782986111,130.25933202107748L90.67425227430556,131.47942097981772L91.03984449652778,127.06232833862303L91.06859894097222,116.93728923797607L91.24934116319444,145.45648415883383L91.30685005208333,120.386368115743L91.78335227430554,139.7479281425476L92.14483671875,141.23527495066324L92.23520782986111,141.29660574595135L92.64598560763889,108.5374085108439L92.94996116319444,126.75083541870117L93.08141005208333,104.12786499659221L93.13481116319444,128.62346903483072L93.3853856076389,112.2678025563558L93.77151671875001,93.43590990702312L93.96047449652778,115.3742167154948L93.98101338541666,132.12108739217123L94.14532449652778,117.31169780095418L94.20283338541667,110.85083611806233L94.26034227430556,139.44754791259766L94.32195894097222,109.27138996124268L94.4534078298611,131.00655492146808L94.51091671875001,137.9311580657959L95.06546671875,122.27250576019289L95.21745449652776,115.21999883651733L95.41462782986112,124.13876247406007L95.5666156076389,68.41485850016277L95.70628005208334,127.81502787272136L96.19921338541667,110.66029802958171L96.31423116319445,102.33626492818198L96.81538005208333,87.11622158686319L96.95093671875,110.2364403406779L97.06184671875,115.81641737620035L97.93269560763889,121.60101795196535L98.11343782986111,125.47082233428955L98.28185671875,126.86265627543132L98.56118560763889,103.99777619043985L98.56529338541668,113.0801542599996L98.79122116319444,130.73292954762775L99.08422125000001,118.01316642761232L99.40873569444445,137.2262477874756L99.55250791666667,116.5317276318868L100.80127236111112,132.32487630844116L101.22437347222221,118.69900226593019L101.35582236111111,144.22838656107584L101.41333125,126.51051060358682L101.42565458333334,160.61642050743103L101.52424124999999,129.7003027598063L101.6885523611111,134.62267112731934L102.39919791666667,125.3824741045634L102.42384458333333,123.33897701899211L102.42795236111111,130.22261794408163L102.98661013888889,143.95176029205322L103.52472902777777,114.24122873942058L103.67671680555556,158.53635938962302L104.21894347222222,153.5857966740926L104.50238013888888,115.75947539011638L104.73241569444446,106.06919097900392L104.76938569444444,129.768816947937L104.90905013888889,131.66390101114908L105.52521680555554,134.5373706817627L106.03458125,148.87744839986163L106.51108347222221,122.71915149688722L106.54394569444445,143.14034636815387L106.56037680555556,112.19949467976888L106.57680791666667,124.77641518910727L107.67493244791666,132.4821138381958L107.93372244791667,136.47754319508869L107.98712355902778,125.90096314748129L108.02409355902779,112.89052581787108L108.15554244791666,149.70230070749918L109.12908578125,136.6193823814392L109.15373244791667,124.0563128789266L109.21534911458333,144.6343795458476L109.27696578125,96.02528858184814L109.72471355902779,154.85547542572021L110.08209022569444,119.0562775929769L110.56680800347222,151.0562858581543L110.58323911458334,105.1670937538147L110.97758578125,93.47291469573973L111.26102244791667,109.04229036966959L111.42944133680555,128.6717365582784L111.66769244791666,137.4380172093709L111.78681800347222,128.5230515797933L111.84432689236111,124.80271053314209L112.16473355902777,112.42247994740804L112.17705689236111,131.86188507080078L112.3619068923611,148.68229643503827L112.65355911458333,111.66767978668213L112.80554689236112,126.56528631846109L113.57370133680556,133.5235651334127L113.65585689236111,136.8718326886495L113.79552133680555,134.87941646575928L113.86124578125,109.9598609606425L113.90643133680557,107.80024798711142L114.16932911458333,129.3054224650065L114.22273022569445,144.1781309445699L115.50159697916666,128.0993251800537L115.71109364583334,138.66340462366742L115.84254253472221,130.4673784573873L115.87951253472222,159.0233952999115L115.9575603125,149.3314181963603L116.0315003125,136.61725362141928L116.24921253472222,121.72513310114543L116.59837364583333,151.41810003916422L116.61069697916666,114.45224793752035L116.76268475694444,119.39532248179117L116.87770253472222,156.68203592300415L116.95164253472223,125.29046853383382L116.95985809027778,105.08482233683269L117.34598920138889,121.9680274327596L117.6787192013889,126.06649065017699L118.13057475694444,134.4510293006897L118.20040697916667,139.23257128397623L118.24559253472223,124.40291627248128L118.33185586805554,118.93169355392457L118.47973586805556,137.7840954462687L118.54546031250001,148.9337526957194L118.86175920138889,115.6726744969686L119.28896809027778,145.8165634473165L119.42863253472223,125.51817083358765L119.60937475694445,132.66646258036295L119.9338892013889,117.68060159683228L120.72258253472222,145.07105668385825L120.76776809027778,127.51031510035196L120.78830697916666,126.21091810862224L120.88278586805555,139.08897844950357L121.10871364583333,141.08538023630777L121.11692920138888,113.98679033915201L121.66737142361112,139.56586758295694L122.69842364583333,145.8229872385661L122.79701031249999,112.0838664372762L123.03936920138888,110.87171109517415L123.10509364583334,122.38972822825114L123.70072142361111,137.82355721791583L123.98961373263889,130.6643778483073L123.99782928819445,131.2907115618388L124.14981706597221,125.59530321756999L125.32053373263889,136.19812234242758L125.54235373263889,138.2417319615682L125.64504817708334,129.74443467458087L126.22013706597222,113.93821334838867L126.83630373263888,147.28222878774008L126.93078262152777,112.12782955169678L126.98007595486112,148.9409735997518L127.90021817708333,120.12169853846233L128.21240928819444,125.80756028493245L128.21651706597223,146.30434958140054L128.59854039930556,133.32248640060425L128.96413262152777,140.5919392903646L128.97234817708335,153.5215212504069L129.19416817708333,118.91861152648927L129.20649151041667,128.32992521921793L130.9399737326389,132.81231546401978L132.202409375,126.21930185953777L132.5762171527778,135.1247115135193L132.5926482638889,132.02518065770465L132.67069604166667,132.49803733825684L133.13898270833334,159.78811248143512L133.54154493055555,138.74998982747397L133.59905381944444,140.18411763509116L133.76336493055555,133.0601143836975L134.050909375,117.61928017934164L134.11252604166665,136.1480261484782L134.24397493055557,144.0168046951294L134.272729375,147.1179297765096L134.50276493055557,134.59109608332318L134.59313604166667,135.66437562306723L134.72047715277776,121.94608338673909L134.975159375,144.6425100962321L135.2175182638889,140.93492285410562L135.78028381944443,136.00600878397623L136.39234270833333,136.51015917460123L136.5813004861111,144.88012472788492L137.42339493055556,143.2198513348897L137.64521493055557,116.17267990112303L137.68629270833333,150.71429634094238L137.69450826388888,134.58508491516113L137.86703493055555,112.56074619293214L138.1011782638889,134.28462028503418L138.524279375,151.69781160354614L138.57357270833333,126.62122488021852L139.263679375,135.06035168965658L139.300649375,114.24377950032553L139.49371493055554,135.9699511528015L139.9455704861111,139.28701877593994L140.0564804861111,127.83118581771852L140.10988159722223,133.9273543357849L140.41385715277778,121.54422601064047L140.59183946180556,137.31473668416342L141.12174279513889,144.26089000701904L141.51608946180556,138.2716096242269L141.70915501736113,133.35591824849445L141.9556216840278,145.64029836654663L142.21030390625,135.56965986887613L142.21441168402777,145.98537317911786L142.84700946180556,151.35446230570474L143.02775168402778,128.32074435551962L143.08936835069446,152.0336399078369L143.39745168402777,139.90025170644125L143.47549946180555,149.47644583384195L143.5453316840278,129.5271135965983L144.23543835069444,146.59590530395508L144.47779723958334,150.88966115315756L144.78588057291665,141.75414848327637L144.79820390625002,130.59578863779703L144.83517390625,108.06151342391968L145.1103950173611,162.60724719365436L145.17611946180557,150.7559431393941L145.54171168402777,140.84637769063315L145.6444061284722,117.27642790476482L146.2236027951389,150.96640904744467L146.35915946180558,123.34555085500081L146.39202168402778,134.50155687332153L146.6425961284722,164.12985452016196L147.10266723958333,125.58941396077473L147.26287057291665,135.0066825548808L147.49701390624998,133.8963982264201L148.56914390625,127.6958548227946L148.93197621527779,153.1333179473877L148.9648384375,115.04418389002483L149.1907662152778,142.76915438969928L149.60154399305554,131.02155939737958L150.33683621527777,143.94689321517944L150.58330288194446,137.61321322123212L150.6983206597222,109.65578587849936L151.06802065972224,146.13367366790771L151.11731399305557,134.43115774790448L151.7006184375,141.35195350646973L152.24695288194445,117.80134073893228L152.45644954861112,143.90875371297201L152.84258065972222,122.1046994527181L152.95349065972223,146.10957272847494L153.1958495486111,126.30034478505453L153.50393288194445,122.2845843633016L153.72986065972225,122.97635634740193L153.79558510416666,146.91548188527423L153.9393573263889,160.25087865193683L153.96400399305557,143.08929363886514L154.40353621527777,146.26053651173908L154.43229065972224,132.52211952209473L154.50212288194444,132.69401454925537L154.59660177083333,128.37538878122965L154.66643399305556,124.39786163965861L154.7732362152778,139.38494173685712L155.18401399305557,137.92870108286542L155.2867084375,133.13737805684408L155.51674399305557,142.86819330851236L155.5660373263889,138.33111174901327L155.6194384375,139.69605954488117L156.11237177083333,125.14078950881957L156.34240732638887,146.3803097407023L156.3588384375,134.28772433598837L156.52314954861112,163.67492818832397L156.6587062152778,145.7798868815104L156.72443065972223,160.86677487691244L158.12242296875,123.25112581253053L158.17582407986112,135.80221048990884L158.37299741319444,161.8225131034851L158.95219407986113,131.25853633880615L159.06310407986112,145.8962278366089L159.22741519097224,147.00851901372275L159.26027741319444,157.0328499476115L159.42048074652777,139.74546178181967L160.39813185763887,153.0161517461141L160.68567630208335,133.28839810689288L160.94035852430557,152.2835957209269L161.08002296875,118.4698182741801L161.3223818576389,162.83448060353598L161.88925519097222,123.82710075378417L161.97962630208332,139.32081635793048L162.10696741319444,136.7673921585083L162.25484741319443,130.6923705736796L162.27127852430556,143.68326457341513L162.30414074652776,136.87082926432294L162.56293074652777,125.32355340321858L163.10104963541667,119.46627489725749L163.1667740798611,131.91327540079752L163.22428296875,144.32611258824667L163.31054630208334,152.57545153299967L163.40502519097222,130.9125706354777L163.47896519097222,119.73592408498128L163.56112074652776,154.74236981074014L164.21425741319445,128.25587813059488L164.35802963541667,107.61682764689128L164.54698741319444,146.0325059890747L165.58349527777779,127.88125387827554L165.64100416666665,154.08158206939697L165.8381775,118.92281277974446L166.03124305555556,152.48916641871136L166.56525416666665,171.11687628428143L166.83225972222223,134.67674350738525L166.83636750000002,158.99415063858032L166.88566083333333,151.18312056859335L166.88976861111112,161.70520623524985L167.2060675,126.85241572062174L167.46896527777778,125.99008973439535L167.65792305555556,122.22220325469972L168.3685686111111,140.89030329386395L168.75469972222223,121.3410841623942L169.28460305555555,140.1370973587036L169.35854305555557,147.20388666788736L169.42015972222222,118.91814263661702L170.48818194444445,144.14217646916705L170.52104416666666,143.71243890126547L170.90717527777778,132.74234771728516L171.1372108333333,147.36889839172363L171.15774972222223,92.77621936798096L171.1659652777778,171.45499277114868L171.24812083333333,123.58361562093098L171.8026708333333,148.1369400024414L172.0819997222222,128.27636861801147L172.15593972222223,123.37595367431642L172.52563972222222,121.33480103810628L172.85015416666664,146.01620737711588L172.87069305555553,146.58888133366904L173.21163861111108,162.89318561553955L173.62241638888887,148.90537548065186L173.66760194444444,128.7002731959025L173.76618861111112,148.17896191279092L174.2727931423611,147.14110231399536L174.7575109201389,135.58331394195557L175.31616869791665,135.8722438812256L175.44761758680553,157.14263582229614L175.53798869791666,156.27058506011963L175.5667431423611,144.18116935094196L175.6037131423611,179.78698762257892L175.61192869791668,136.4875774383545L175.6201442534722,148.5745267868042L175.68586869791667,145.76593271891278L176.01038314236112,138.01133823394775L176.28971203125,141.81180318196613L176.39651425347222,150.41246255238852L176.5320709201389,161.68259167671204L176.7128131423611,158.5403871536255L177.37005758680553,142.56004826227823L177.72743425347224,135.03508790334067L177.78083536458334,159.74357732137045L177.98211647569445,96.59097607930502L178.0848109201389,147.51027806599936L178.19982869791667,137.65843296051025L178.42986425347223,147.77743275960287L178.7133009201389,149.64650281270343L178.95976758680555,160.48031584421793L179.30892869791668,136.5444631576538L179.41162314236112,125.53635438283285L179.57182647569445,150.50971031188965L179.71559869791668,147.70996888478598L179.9620653645833,147.08077494303384L180.51250758680555,134.1366198857625L180.69324980902778,150.33278878529867L181.0054409201389,150.3035675684611L181.9871998090278,126.59733025232951L182.37467878472222,153.26874272028604L182.44040322916666,113.7583096822103L182.51845100694445,163.86495049794516L182.74437878472224,154.8455349604289L182.77724100694445,123.83743508656819L182.92512100694444,143.36551666259766L183.47556322916665,152.31411107381186L183.56593434027778,161.2180202802022L183.57414989583333,125.31867694854738L183.58647322916667,166.5957088470459L183.6357665625,160.1806342601776L183.69327545138887,161.127055644989L183.77543100694444,151.63620885213217L184.01778989583335,133.61594581604004L184.3012265625,123.04744942982991L184.3587354513889,145.78684520721436L184.51072322916667,120.59644953409831L184.7818365625,143.40634759267172L184.87220767361111,159.87796115875244L185.5417754513889,150.3510004679362L186.07989434027778,149.7378706932068L186.1908043402778,118.31555350621541L186.19901989583332,155.6577272415161L186.39208545138888,155.49746068318683L186.54407322916666,155.2378832499186L186.69195322916667,119.2745927174886L186.80286322916666,125.70996554692587L187.11094656249998,149.2282811800639L187.33276656249998,134.5110378265381L187.35330545138888,138.53027741114298L187.8832087847222,167.66041707992554L188.06395100694445,153.5772441228231L188.8649676736111,151.85185130437216L189.72760100694444,129.77540016174316L189.73170878472223,135.20439465840658L189.7892176736111,139.43933296203613L189.81797211805556,125.24896240234376L190.1424865625,147.4832887649536L190.2698276736111,156.90795644124347L190.45467767361112,121.97076574961345L191.44599998263888,148.355611483256L191.58566442708334,146.0418462753296L191.75408331597222,150.79484224319458L191.82802331597222,149.4939635594686L191.87320887152777,128.24632215499878L192.34971109375,155.81452401479086L193.08500331597224,134.41078917185465L193.2205599826389,143.95159149169922L193.22466776041668,122.09305222829182L194.09962442708334,139.86484114329022L194.20642664930554,162.53393626213074L194.51040220486112,124.24579127629599L194.6623899826389,137.3322262763977L194.71579109375,154.1606181462606L195.1019222048611,162.22693999608356L195.17175442708333,144.31550629933676L195.21283220486112,140.38407103220624L195.57842442708332,136.3520588874817L196.14529776041664,133.3651835123698L196.36711776041668,153.73064613342285L196.47802776041667,158.19023895263672L196.5601833159722,124.14301999409993L196.8066499826389,139.75408935546875L197.06954776041667,119.37917391459148L197.07365553819443,123.35657914479573L197.15170331597224,123.80367501576741L197.32422998263888,112.7636817296346L197.37763109375,129.83236090342206L197.52551109375,138.6830417315165L197.69392998263888,137.17319758733115L197.71857664930556,157.1001262664795L197.86645664930555,149.4639452298482L198.0636299826389,158.46394403775534L198.4990544270833,132.34133434295654L198.57299442708333,144.42652066548663L198.79070664930555,130.95379543304443L198.88929331597222,159.90569599469504L199.60950229166667,142.1753803888957L199.64236451388888,151.2490464846293L199.8395378472222,156.71243874231973L199.97920229166667,140.42349529266357L200.1352978472222,135.92875448862713L200.22156118055554,160.3927084604899L200.6364467361111,154.37623246510825L200.74735673611113,153.83357683817547L200.75968006944444,149.12882963816324L200.77611118055555,156.3332381248474L201.00203895833334,159.20572312672934L201.00614673611113,150.69963884353638L201.54015784722222,155.41044410069782L201.655175625,146.05264949798584L201.99612118055555,152.40416606267294L202.40279118055554,136.06740522384644L202.61228784722223,142.89030615488687L202.66158118055554,140.48900858561197L202.68212006944444,144.2523749669393L202.7848145138889,148.80160077412924L202.81356895833332,111.06909497578938L202.875185625,146.9415052731832L202.88340118055555,139.57668018341064L202.9655567361111,137.91090202331543L203.14629895833335,142.98761955897012L203.20380784722224,133.14178562164307L203.63101673611112,127.32747618357341L204.206105625,154.22746308644614L204.40327895833335,153.91743310292563L204.43614118055555,151.3646372159322L204.61688340277777,145.72872161865234L204.7770867361111,133.4830249150594L204.7811945138889,149.89874680836996L205.05230784722224,149.00327968597412L205.09338562500002,148.63908354441327L205.10570895833334,125.8366502126058L206.06692895833334,153.55853541692096L206.3339345138889,140.89105351765951L206.461275625,122.92586628595987L206.76525118055554,142.8893871307373L207.43616682291665,162.17505264282227L207.52653793402777,150.09376748402914L207.71960348958333,138.3016185760498L208.04001015625,146.50042057037354L208.07698015625,130.40356254577637L208.1344890451389,143.90677499771118L208.20842904513887,149.18633429209393L208.26183015625,157.46020555496216L208.47132682291667,158.7066930135091L208.5616979340278,156.31777413686117L209.2394812673611,126.06031068166098L209.62150460069444,162.96457409858704L209.63382793402778,174.05132977167764L209.88851015625,143.55741453170776L210.2171323784722,158.0069030125936L210.7429279340278,146.52007643381754L210.94831682291667,155.5536149342855L211.09619682291665,154.58444770177206L211.18246015625,152.63976446787515L211.8643512673611,138.66341400146484L212.28745237847224,162.87800296147662L212.41890126736112,180.0561444759369L213.51978571180555,126.74983199437459L213.8278690451389,145.62556584676108L213.94288682291665,140.29093074798584L214.21400015625002,142.76565647125244L214.27150904513888,155.00680494308472L214.47689793402776,127.63415829340617L214.68228682291667,141.90646266937256L214.71925682291666,146.6645132700602L214.75622682291666,137.292520682017L214.76855015625,168.2068285147349L214.92464571180554,139.15120951334634L215.3436390451389,164.34770075480142L215.6982557986111,138.75490379333496L215.75165690972221,143.51659297943115L215.7763035763889,159.8094235261281L215.7804113541667,140.83963505427042L215.9036446875,124.86141554514566L216.1254646875,148.724449634552L216.78681690972223,119.9455459912618L216.94291246527777,137.04628785451254L217.07025357638886,155.51325289408365L217.15240913194447,157.68235619862875L217.9000246875,123.05867465337117L218.46689802083333,160.6038777033488L218.6394246875,153.94142150878906L219.0625257986111,138.58976078033447L219.2309446875,161.9553027153015L219.27613024305555,157.03052425384521L219.37471690972222,150.44528484344482L219.42401024305553,131.9300241470337L219.99499135416667,172.79710563023886L220.18394913194444,144.9335594177246L220.8411935763889,129.92214393615723L220.89048690972223,157.31431516011557L220.99728913194446,143.0616666475932L222.11871246527775,147.37600676218668L222.80471135416664,159.2118702729543L223.01420802083334,129.58837874730426L223.06350135416665,133.13859717051187L223.4989257986111,130.3341105779012L223.9562369965278,138.22931575775146L224.58061921875,141.23100805282593L224.64634366319444,142.22656440734863L224.72439144097223,160.5403993924459L224.72849921875002,163.92517002423605L225.14749255208332,147.92021910349527L225.16803144097221,140.47270997365314L225.22964810763887,145.046777566274L225.24197144097224,143.17957369486493L225.28715699652778,134.65374914805093L225.35698921875,154.95696194966632L225.37342032986112,147.7355984052022L225.43914477430556,133.77111085255942L225.50076144097224,141.6534309387207L225.5582703298611,156.53644561767578L225.72258144097222,155.16618998845416L225.75133588541667,160.51529502868652L225.82938366319445,185.05557489395142L226.34696366319443,156.91903162002563L226.42911921875,140.17108249664307L226.52770588541668,138.9892924626668L226.98366921874998,162.06754088401794L227.34104588541666,117.13205671310423L227.60805144097222,139.5032426516215L227.66556032986114,127.3786226908366L228.0023981076389,138.0556295712789L228.28994255208332,126.88349374135335L229.20186921875,156.85154898961386L229.70301810763888,149.55138381322223L229.98234699652778,144.03933954238892L230.0193169965278,153.69738308588663L230.2205981076389,152.901104927063L230.63548366319446,169.6067132949829L230.76282477430556,144.70316569010419L230.78747144097224,136.35929854710895L230.94767477430554,152.29573996861774L231.30094366319446,153.62019443511963L231.81441588541668,158.53760194778442L231.83084699652778,130.76905282338458L232.05677477430555,147.99124654134113L232.0649903298611,160.82156451543173L232.15125366319444,159.60052839914957L232.24573255208333,160.32338778177896L232.66607375,157.11179224650064L233.69301819444445,151.8731107711792L233.7423115277778,171.62689717610678L233.82035930555554,150.37401358286542L233.98877819444445,169.9383684794108L234.13665819444444,136.4414292971293L234.41187930555554,144.6261927286784L234.60083708333335,162.02603006362915L234.7939026388889,171.50779914855957L235.29505152777776,161.35121313730875L235.47579375,160.1631868680318L236.14946930555556,135.35567728678387L236.1946548611111,158.80673066775006L236.40004375,157.97111264864603L236.81492930555555,153.61937856674194L236.8601148611111,165.80329434076947L237.25856930555554,136.63715330759683L237.31607819444446,155.10910733540854L237.37358708333332,149.1784381866455L237.45985041666665,126.92368698120117L237.6611315277778,156.137495358785L238.1212026388889,152.2827704747518L238.43339375000002,130.4643588066101L238.49090263888888,141.80175018310547L238.74147708333334,145.8112931251526L239.15225486111112,149.8133619626363L239.22619486111114,124.90665404001871L239.49320041666667,154.35001214345297L239.87522375,155.62267303466797L239.8957626388889,157.01214377085367L239.95737930555555,129.21063168843588L240.04364263888888,125.65325800577799L240.28189375,134.76418209075928L240.35172597222223,146.54788160324097L240.5078215277778,116.13567511240642L240.5447915277778,133.12738132476807L240.5530070833333,136.15635363260904L240.78028272569443,165.82690294583637L241.10890494791667,150.30347379048663L241.41288050347222,152.39258448282877L241.51968272569445,163.1393527984619L241.64702383680557,182.46719026565552L241.9099216145833,150.2352409362793L243.44623050347224,149.89288568496704L243.9843493923611,127.35977331797282L243.98845717013887,137.94488716125488L244.7976893923611,165.10588630040488L245.3317005034722,165.48184688886008L245.34402383680555,151.53571637471515L245.36867050347223,163.64353132247925L245.42617939236112,143.57626390457153L245.51244272569446,143.39365005493164L245.68496939236113,141.46097977956137L246.5722493923611,123.04463609059651L246.71191383680556,133.0861940383911L246.85157828125,159.03665081659952L247.0775060590278,134.94918727874756L247.12679939236114,114.4767615000407L247.2171705034722,162.40867233276367L247.27057161458333,150.53503036499023L247.84566050347223,152.590305964152L247.87852272569444,134.8639899889628L248.26465383680554,166.9086553255717L248.36734828124997,140.5898011525472L248.90546717013888,124.05907932917277L249.60102947916667,172.93472011884054L249.95429836805556,150.92129246393839L250.00359170138887,165.23929484685263L250.04877725694445,168.48505838712057L250.0734239236111,129.24822727839154L250.77996170138888,116.00614897410074L250.9442728125,130.97565507888794L252.2505461458333,148.03719774881998L252.2957317013889,160.0997273127238L252.54219836805555,135.98835976918537L253.06388614583332,143.3968760172526L253.1789039236111,153.01917139689127L253.7704239236111,156.78733921051025L254.0127828125,150.0059725443522L254.44820725694444,161.79723993937176L254.93292503472222,161.88437374432883L255.72572614583333,158.09564979871115L256.25973725694445,154.94637441635132L256.27616836805555,135.58856550852457L256.32956947916665,144.45094045003256L256.99092170138886,161.36547676722208L257.88776512152776,165.7545297940572L258.21638734375,143.08894666035968L258.2738962326389,165.7608035405477L258.44231512152777,161.13040351867676L258.46696178819445,135.90182145436606L258.55733289930555,155.79775651295978L258.59430289930555,151.0513531366984L259.02151178819446,155.41521739959717L259.09545178819445,154.9969301223755L259.4569362326389,150.51749388376874L259.99916289930553,156.8809765179952L260.33189289930556,135.51206143697104L260.34421623263887,120.7581508954366L260.35653956597224,143.37043062845865L260.44280289930555,154.72819995880127L260.45923401041665,150.74492422739664L260.53317401041664,142.1259969075521L260.65640734375,139.33309189478555L260.8987662326389,153.80632495880127L261.23560401041664,151.79347451527912L261.52314845486114,132.13577302296957L261.9832195659722,129.99570337931314L262.1023451215278,154.23286469777426L262.27076401041666,159.47995336850485L262.5993862326389,146.82751814524335L262.7472662326389,127.95534785588583L262.91979289930555,144.39318259557086L263.1826906770833,149.0578959782918L263.2484151215278,162.37752397855124L263.2525228993056,171.8842473824819L263.3675406770833,129.59153906504312L264.0165695659722,144.408327738444L264.0330006770833,141.6267417271932L264.05764734375,149.51581382751465L264.4232395659722,159.08765665690106L265.1831784548611,152.36858669916788L265.23247178819446,131.07650391260785L265.30641178819445,150.30467414855957L265.31462734375003,146.00639820098877L265.88284854166665,128.95141061147052L265.99375854166664,135.76890993118286L266.4332907638889,166.0033508936564L267.3986185416667,141.70129521687826L267.854581875,141.71806271870932L268.01478520833336,149.24944686889648L268.150341875,149.24969069163004L268.5652274305556,153.43197266260782L268.6063052083333,149.8356154759725L268.7459696527778,166.03118888537088L269.370351875,145.45033232371011L269.41553743055556,159.2046024799347L269.850961875,159.21351607640582L270.03991965277777,150.09861580530804L270.1302907638889,157.79587443669638L270.17958409722223,149.18802229563397L270.9682774305556,159.53320988019308L271.0915107638889,156.3777263959249L271.7775096527778,141.9148557980855L271.9007429861111,142.8715786933899L271.93360520833335,163.9106719493866L272.106131875,125.52799876530966L272.4265385416667,153.35842259724933L272.79623854166664,141.65172417958578L272.9605496527778,167.06841548283896L273.26863298611113,152.5031862258911L273.4165129861111,153.45266008377075L273.82318298611114,160.67797168095908L273.917661875,164.632298151652L274.60911640625,144.18374824523926L274.96649307291665,161.13896544774374L275.49228862847224,158.84494988123575L275.7716175173611,150.66685406366983L276.3672452951389,160.14462820688883L276.64657418402777,167.91730308532715L276.65478973958335,169.20151742299396L277.22166307291667,156.63119888305664L278.0637575173611,143.9888588587443L278.3677330729167,161.82923229535422L278.4868586284722,145.886381149292L278.54025973958335,148.35240427652994L278.9962230729167,164.5044600168864L279.21804307291666,116.54386250178018L279.25912085069444,152.40209356943765L279.4275397395833,154.67927598953247L279.4809408506944,167.24925692876178L279.6329286284722,145.5617030461629L279.76026973958335,159.32451168696085L280.2532030729167,144.54836638768515L280.8118608506945,112.62962611516318L282.29611649305554,141.331397374471" style="fill: none;" fill="none"></path></g></g></g></g></g></g><g transform="translate(41, 177)" clip-path="url(#clip_1)"><clipPath id="clip_1"><rect width="288" height="22"></rect></clipPath><g><g><line x1="0" y1="0" x2="0" y2="5" style="visibility: inherit;" fill="rgb(0, 0, 0)" stroke="rgb(204, 204, 204)" stroke-width="1px"></line><line x1="32.092013888888886" y1="0" x2="32.092013888888886" y2="5" style="visibility: inherit;" fill="rgb(0, 0, 0)" stroke="rgb(204, 204, 204)" stroke-width="1px"></line><line x1="64.18402777777777" y1="0" x2="64.18402777777777" y2="5" style="visibility: inherit;" fill="rgb(0, 0, 0)" stroke="rgb(204, 204, 204)" stroke-width="1px"></line><line x1="96.27604166666666" y1="0" x2="96.27604166666666" y2="5" style="visibility: inherit;" fill="rgb(0, 0, 0)" stroke="rgb(204, 204, 204)" stroke-width="1px"></line><line x1="128.36805555555554" y1="0" x2="128.36805555555554" y2="5" style="visibility: inherit;" fill="rgb(0, 0, 0)" stroke="rgb(204, 204, 204)" stroke-width="1px"></line><line x1="160.46006944444446" y1="0" x2="160.46006944444446" y2="5" style="visibility: inherit;" fill="rgb(0, 0, 0)" stroke="rgb(204, 204, 204)" stroke-width="1px"></line><line x1="192.55208333333331" y1="0" x2="192.55208333333331" y2="5" style="visibility: inherit;" fill="rgb(0, 0, 0)" stroke="rgb(204, 204, 204)" stroke-width="1px"></line><line x1="224.64409722222223" y1="0" x2="224.64409722222223" y2="5" style="visibility: inherit;" fill="rgb(0, 0, 0)" stroke="rgb(204, 204, 204)" stroke-width="1px"></line><line x1="256.7361111111111" y1="0" x2="256.7361111111111" y2="5" style="visibility: inherit;" fill="rgb(0, 0, 0)" stroke="rgb(204, 204, 204)" stroke-width="1px"></line><line x1="288.828125" y1="0" x2="288.828125" y2="5" style="visibility: inherit;" fill="rgb(0, 0, 0)" stroke="rgb(204, 204, 204)" stroke-width="1px"></line></g><g transform="translate(0, 8)"><text x="0" y="0" dx="0em" dy="0.95em" style="text-anchor: middle; visibility: hidden; font-family: Roboto, sans-serif; font-size: 12px; font-weight: 200;" fill="rgb(33, 33, 33)" stroke="none" stroke-width="1px">-500k</text><text x="32.092013888888886" y="0" dx="0em" dy="0.95em" style="text-anchor: middle; visibility: inherit; font-family: Roboto, sans-serif; font-size: 12px; font-weight: 200;" fill="rgb(33, 33, 33)" stroke="none" stroke-width="1px">0</text><text x="64.18402777777777" y="0" dx="0em" dy="0.95em" style="text-anchor: middle; visibility: inherit; font-family: Roboto, sans-serif; font-size: 12px; font-weight: 200;" fill="rgb(33, 33, 33)" stroke="none" stroke-width="1px">500k</text><text x="96.27604166666666" y="0" dx="0em" dy="0.95em" style="text-anchor: middle; visibility: inherit; font-family: Roboto, sans-serif; font-size: 12px; font-weight: 200;" fill="rgb(33, 33, 33)" stroke="none" stroke-width="1px">1M</text><text x="128.36805555555554" y="0" dx="0em" dy="0.95em" style="text-anchor: middle; visibility: inherit; font-family: Roboto, sans-serif; font-size: 12px; font-weight: 200;" fill="rgb(33, 33, 33)" stroke="none" stroke-width="1px">1.5M</text><text x="160.46006944444446" y="0" dx="0em" dy="0.95em" style="text-anchor: middle; visibility: inherit; font-family: Roboto, sans-serif; font-size: 12px; font-weight: 200;" fill="rgb(33, 33, 33)" stroke="none" stroke-width="1px">2M</text><text x="192.55208333333331" y="0" dx="0em" dy="0.95em" style="text-anchor: middle; visibility: inherit; font-family: Roboto, sans-serif; font-size: 12px; font-weight: 200;" fill="rgb(33, 33, 33)" stroke="none" stroke-width="1px">2.5M</text><text x="224.64409722222223" y="0" dx="0em" dy="0.95em" style="text-anchor: middle; visibility: inherit; font-family: Roboto, sans-serif; font-size: 12px; font-weight: 200;" fill="rgb(33, 33, 33)" stroke="none" stroke-width="1px">3M</text><text x="256.7361111111111" y="0" dx="0em" dy="0.95em" style="text-anchor: middle; visibility: inherit; font-family: Roboto, sans-serif; font-size: 12px; font-weight: 200;" fill="rgb(33, 33, 33)" stroke="none" stroke-width="1px">3.5M</text><text x="288.828125" y="0" dx="0em" dy="0.95em" style="text-anchor: middle; visibility: hidden; font-family: Roboto, sans-serif; font-size: 12px; font-weight: 200;" fill="rgb(33, 33, 33)" stroke="none" stroke-width="1px">4M</text></g><line x1="0" y1="0" x2="288.828125" y2="0" fill="rgb(0, 0, 0)" stroke="rgb(204, 204, 204)" stroke-width="1px"></line></g></g></g></g></svg>